<svg version="1.1" xmlns="http://www.w3.org/2000/svg" viewBox="-27.557451506612953 -27.270768038660773 55.11490301322591 53.4186091965658" fill="none" stroke="black" stroke-width="0.6%" vector-effect="non-scaling-stroke">
    <path d="M -26.55745 -20.36948 L -26.55745 -21.29127 L 0 0 L 26.55745 -4.9795 L 0 -26.27077 L -26.55745 -21.29127" />
    <path d="M 0 0.92178 L 0 0" />
    <path d="M -26.55745 -20.36948 L 0 0.92178 L 26.55745 -4.05772 L 26.55745 -4.9795" />
    <path d="M -23.77737 5.42724 L -23.77737 -18.14068" />
    <path d="M -23.12432 5.9508 L -23.12432 -17.61712" />
    <path d="M -23.77737 5.42724 L -23.12432 5.9508 L -21.77394 5.6976 L -21.77394 -16.53451" />
    <path d="M 0.16788 24.62428 L 0.16788 0.8903" />
    <path d="M 0.82093 25.14784 L 0.82093 0.76786" />
    <path d="M 0.16788 24.62428 L 0.82093 25.14784 L 2.17131 24.89465 L 2.17131 0.51466" />
    <path d="M -2.17131 1.37612 L -2.17131 -0.81897" />
    <path d="M -1.51825 1.89968 L -1.51825 -0.29541" />
    <path d="M -2.17131 1.37612 L -1.51825 1.89968 L -0.16788 1.64648 L -0.16788 0.78719" />
    <path d="M 21.77394 20.57316 L 21.77394 -3.16081" />
    <path d="M 22.42699 21.09672 L 22.42699 -3.28326" />
    <path d="M 21.77394 20.57316 L 22.42699 21.09672 L 23.77737 20.84353 L 23.77737 -3.53646" />
</svg>